<svg width="36" height="36" viewBox="0 0 36 36" fill="none" xmlns="http://www.w3.org/2000/svg">
<path d="M31.35 17.4C31.2 17.25 31.2 17.1 31.05 16.95L26.55 12.45C25.95 11.85 25.05 11.85 24.45 12.45C23.85 13.05 23.85 13.95 24.45 14.55L26.4 16.5H19.5C18.6 16.5 18 17.1 18 18C18 18.9 18.6 19.5 19.5 19.5H26.4L24.45 21.45C23.85 22.05 23.85 22.95 24.45 23.55C24.75 23.85 25.2 24 25.5 24C25.8 24 26.25 23.85 26.55 23.55L31.05 19.05C31.2 18.9 31.35 18.75 31.35 18.6C31.5 18.15 31.5 17.85 31.35 17.4Z" fill="#101727"/>
<path d="M23.25 27.15C21.6 28.05 19.8 28.5 18 28.5C12.15 28.5 7.5 23.85 7.5 18C7.5 12.15 12.15 7.5 18 7.5C19.8 7.5 21.6 7.95 23.25 8.85C24 9.3 24.9 9 25.35 8.25C25.8 7.5 25.5 6.6 24.75 6.15C22.65 5.1 20.4 4.5 18 4.5C10.5 4.5 4.5 10.5 4.5 18C4.5 25.5 10.5 31.5 18 31.5C20.4 31.5 22.65 30.9 24.75 29.7C25.5 29.25 25.65 28.35 25.35 27.6C24.9 27 24 26.7 23.25 27.15Z" fill="#101727"/>
</svg>
